# File created by Blade
# Date/Time:  Wed Jan 28 16:58:26 2015
#---------------------------------------------------------
:version 1.10
:name HOM
:units
  mass 1.0
  length 1.000000
  angle deg
:documentation
     Acclaim Skeleton File
:root
   axis xyz
   order TX TY TZ RX RY RZ
   position 0.000000 0.000000 0.000000
   orientation 0 0 0
:bonedata
   begin
      id 1
      name Spine_dum
      direction 0.000000 1.000000 0.000000
      length 9.621153
      axis 0.0 0.0 0.0 xyz
   end
   begin
      id 2
      name LeftUpLeg_dum
      direction 1.000000 0.000000 0.000000
      length 2.700595
      axis 0.0 0.0 0.0 xyz
   end
   begin
      id 3
      name RightUpLeg_dum
      direction -1.000000 0.000000 0.000000
      length 2.700595
      axis 0.0 0.0 0.0 xyz
   end
   begin
      id 4
      name Spine
      direction 0.000000 1.000000 0.000000
      length 0.000000
      axis 0.0 0.0 0.0 xyz
      dof rx ry rz
   end
   begin
      id 5
      name Spine_dum1
      direction 0.000000 1.000000 0.000000
      length 12.771951
      axis 0.0 0.0 0.0 xyz
   end
   begin
      id 6
      name Spine_dum2
      direction 0.000000 1.000000 0.000000
      length 7.400569
      axis 0.0 0.0 0.0 xyz
   end
   begin
      id 7
      name Spine_dum3
      direction 0.000000 1.000000 0.000000
      length 7.400569
      axis 0.0 0.0 0.0 xyz
   end
   begin
      id 8
      name Head
      direction 0.000000 1.000000 0.000000
      length 4.527550
      axis 0.0 0.0 0.0 xyz
      dof rx ry rz
   end
   begin
      id 9
      name LeftShoulder
      direction 1.000000 0.000000 0.000000
      length 8.349299
      axis 0.0 0.0 -90.0 xyz
      dof rx ry rz
   end
   begin
      id 10
      name LeftArm
      direction 1.000000 0.000000 0.000000
      length 11.334839
      axis 0.0 0.0 -90.0 xyz
      dof rx ry rz
   end
   begin
      id 11
      name LeftForeArm
      direction 1.000000 0.000000 0.000000
      length 9.694182
      axis 0.0 0.0 -90.0 xyz
      dof ry rz rx
   end
   begin
      id 12
      name LeftHand
      direction 0.000000 0.000000 0.000000
      length 0.000000
      axis 0.0 0.0 -90.0 xyz
      dof rx ry rz
   end
   begin
      id 13
      name LeftHand_dum1
      direction 0.000000 0.000000 0.000000
      length 0.000000
      axis 0.0 0.0 -90.0 xyz
   end
   begin
      id 14
      name LeftHand_dum2
      direction 1.000000 0.000000 0.000000
      length 3.937000
      axis 0.0 0.0 -90.0 xyz
   end
   begin
      id 15
      name LeftHandThumb1
      direction 0.000000 0.000000 1.000000
      length 3.937000
      axis 0.0 0.0 -90.0 xyz
      dof rx rz ry
   end
   begin
      id 16
      name RightShoulder
      direction -1.000000 0.000000 0.000000
      length 8.349299
      axis 0.0 0.0 90.0 xyz
      dof rx ry rz
   end
   begin
      id 17
      name RightArm
      direction -1.000000 0.000000 0.000000
      length 11.334839
      axis 0.0 0.0 90.0 xyz
      dof rx ry rz
   end
   begin
      id 18
      name RightForeArm
      direction -1.000000 0.000000 0.000000
      length 9.694182
      axis 0.0 0.0 90.0 xyz
      dof ry rz rx
   end
   begin
      id 19
      name RightHand
      direction 0.000000 0.000000 0.000000
      length 0.000000
      axis 0.0 0.0 90.0 xyz
      dof rx ry rz
   end
   begin
      id 20
      name RightHand_dum1
      direction 0.000000 0.000000 0.000000
      length 0.000000
      axis 0.0 0.0 90.0 xyz
   end
   begin
      id 21
      name RightHand_dum2
      direction -1.000000 0.000000 0.000000
      length 3.937000
      axis 0.0 0.0 90.0 xyz
   end
   begin
      id 22
      name RightHandThumb1
      direction 0.000000 0.000000 1.000000
      length 3.937000
      axis 0.0 0.0 90.0 xyz
      dof rx rz ry
   end
   begin
      id 23
      name LeftUpLeg
      direction 0.000000 -1.000000 0.000000
      length 16.757176
      axis 0.0 0.0 0.0 xyz
      dof rx ry rz
   end
   begin
      id 24
      name LeftLeg
      direction 0.000000 -1.000000 0.000000
      length 16.759153
      axis 0.0 0.0 0.0 xyz
      dof rx ry rz
   end
   begin
      id 25
      name LeftFoot
      direction 0.000000 -0.258819 0.965926
      length 5.841289
      axis 15.0 0.0 0.0 xyz
      dof rx ry rz
   end
   begin
      id 26
      name LeftToeBase
      direction 0.000000 0.000000 1.000000
      length 2.952750
      axis 0.0 0.0 0.0 xyz
      dof rx ry rz
   end
   begin
      id 27
      name RightUpLeg
      direction 0.000000 -1.000000 0.000000
      length 16.757176
      axis 0.0 0.0 0.0 xyz
      dof rx ry rz
   end
   begin
      id 28
      name RightLeg
      direction 0.000000 -1.000000 0.000000
      length 16.759153
      axis 0.0 0.0 0.0 xyz
      dof rx ry rz
   end
   begin
      id 29
      name RightFoot
      direction 0.000000 -0.258819 0.965926
      length 5.841289
      axis 15.0 0.0 0.0 xyz
      dof rx ry rz
   end
   begin
      id 30
      name RightToeBase
      direction 0.000000 0.000000 1.000000
      length 2.952750
      axis 0.0 0.0 0.0 xyz
      dof rx ry rz
   end
:hierarchy
   begin
      root Spine_dum LeftUpLeg_dum RightUpLeg_dum
      Spine_dum Spine
      LeftUpLeg_dum LeftUpLeg
      RightUpLeg_dum RightUpLeg
      Spine Spine_dum1 Spine_dum2 Spine_dum3
      Spine_dum1 Head
      Spine_dum2 LeftShoulder
      Spine_dum3 RightShoulder
      LeftShoulder LeftArm
      LeftArm LeftForeArm
      LeftForeArm LeftHand
      LeftHand LeftHand_dum1 LeftHand_dum2
      LeftHand_dum1 LeftHandThumb1
      RightShoulder RightArm
      RightArm RightForeArm
      RightForeArm RightHand
      RightHand RightHand_dum1 RightHand_dum2
      RightHand_dum1 RightHandThumb1
      LeftUpLeg LeftLeg
      LeftLeg LeftFoot
      LeftFoot LeftToeBase
      RightUpLeg RightLeg
      RightLeg RightFoot
      RightFoot RightToeBase
   end

# File created by Blade
# Date/Time:  Wed Jan 28 16:58:32 2015
# Frame Rate: 120.000 fps
#------------------------------------------------------
:FULLY-SPECIFIED
:DEGREES
1208
root 8.922595 36.238933 -14.277068 201.829757 45.249735 -157.708166
Spine 26.375856 0.095354 -1.191466
Head 40.297737 6.406575 40.418593
LeftShoulder -10.225531 8.830827 24.218354
LeftArm 22.726381 -51.765943 -72.641483
LeftForeArm -13.136509 -0.000000 90.425055
LeftHand -4.206291 -0.000000 32.950121
LeftHandThumb1 -26.253704 0.000000 33.147579
RightShoulder -24.417028 -14.705188 0.874258
RightArm 10.244152 -29.045417 72.962575
RightForeArm -7.098747 -0.000000 20.372378
RightHand -18.366228 0.000000 3.473668
RightHandThumb1 -24.326973 -0.000000 -32.862282
LeftUpLeg -12.861629 41.400095 -1.518434
LeftLeg 2.319810 -0.000000 -0.000000
LeftFoot -17.100448 23.719709 -12.526957
LeftToeBase 17.037864 -0.000000 -0.000000
RightUpLeg -12.163208 2.879512 5.586303
RightLeg 44.740069 -0.000000 -0.000000
RightFoot -9.282627 -11.847626 13.870580
RightToeBase -14.932165 -0.000000 0.000000
1209
root 8.951736 36.225699 -14.326189 201.075141 45.320941 -158.151440
Spine 26.515402 -0.037145 -1.300669
Head 40.657652 6.403408 40.268981
LeftShoulder -10.142127 8.859780 24.161034
LeftArm 22.677262 -51.324205 -72.715467
LeftForeArm -12.863032 -0.000000 90.289933
LeftHand -4.084854 -0.000000 32.941202
LeftHandThumb1 -26.253704 0.000000 33.147579
RightShoulder -24.442835 -14.753668 0.820275
RightArm 10.350513 -29.199872 73.078547
RightForeArm -7.087326 -0.000000 20.676227
RightHand -18.241687 -0.000000 3.464385
RightHandThumb1 -24.326973 -0.000000 -32.862282
LeftUpLeg -12.124709 41.444010 -1.420358
LeftLeg 2.233008 -0.000000 -0.000000
LeftFoot -17.143224 23.642041 -12.576322
LeftToeBase 17.103064 -0.000000 -0.000000
RightUpLeg -11.686395 2.394654 5.342414
RightLeg 44.143012 -0.000000 -0.000000
RightFoot -9.107307 -11.554916 13.350188
RightToeBase -15.061532 -0.000000 0.000000
1210
root 8.984649 36.211731 -14.385125 200.275314 45.397808 -158.616172
Spine 26.641625 -0.128103 -1.404720
Head 41.072993 6.416333 40.113275
LeftShoulder -10.025296 8.986944 24.042776
LeftArm 22.727115 -50.894073 -72.836480
LeftForeArm -12.579573 -0.000000 90.220701
LeftHand -4.019207 -0.000000 33.054466
LeftHandThumb1 -26.253704 0.000000 33.147579
RightShoulder -24.324761 -14.693358 0.725779
RightArm 10.035131 -29.047760 73.381192
RightForeArm -7.310242 0.000000 21.217202
RightHand -18.243760 -0.000000 3.488206
RightHandThumb1 -24.326973 -0.000000 -32.862282
LeftUpLeg -11.321855 41.533731 -1.319780
LeftLeg 2.114467 -0.000000 -0.000000
LeftFoot -17.145988 23.551776 -12.567740
LeftToeBase 17.088698 -0.000000 -0.000000
RightUpLeg -11.113233 1.965221 5.061179
RightLeg 43.508350 -0.000000 -0.000000
RightFoot -8.944845 -11.152865 12.891982
RightToeBase -14.903521 -0.000000 0.000000
1211
root 9.017951 36.199115 -14.443906 199.454472 45.327968 -159.103156
Spine 26.782641 -0.378448 -1.458282
Head 41.458197 6.472004 39.892988
LeftShoulder -9.964340 8.947362 23.975330
LeftArm 22.612173 -50.399457 -72.915839
LeftForeArm -12.242230 -0.000000 90.116551
LeftHand -4.003416 0.000000 33.120130
LeftHandThumb1 -26.253704 0.000000 33.147579
RightShoulder -24.309916 -14.616700 0.593976
RightArm 10.088139 -29.448334 73.433523
RightForeArm -7.128314 -0.000000 21.355607
RightHand -18.107105 -0.000000 3.454764
RightHandThumb1 -24.326973 -0.000000 -32.862282
LeftUpLeg -10.543727 41.484055 -1.190453
LeftLeg 2.028648 -0.000000 -0.000000
LeftFoot -17.133707 23.486451 -12.553696
LeftToeBase 17.041705 -0.000000 -0.000000
RightUpLeg -10.468753 1.376852 4.786550
RightLeg 42.790287 -0.000000 -0.000000
RightFoot -8.652698 -10.553949 12.491378
RightToeBase -15.067519 -0.000000 0.000000
1212
root 9.057191 36.189160 -14.493065 198.762829 45.265360 -159.510914
Spine 26.791315 -0.551591 -1.457950
Head 41.862639 6.471706 39.678682
LeftShoulder -9.888310 9.083505 23.846116
LeftArm 22.763409 -49.962244 -73.174910
LeftForeArm -11.918811 -0.000000 90.043912
LeftHand -4.019525 -0.000000 33.060408
LeftHandThumb1 -26.253704 0.000000 33.147579
RightShoulder -24.382781 -14.697175 0.610277
RightArm 10.186828 -29.491414 73.455098
RightForeArm -7.280392 0.000000 21.632192
RightHand -17.958346 -0.000000 3.489472
RightHandThumb1 -24.326973 -0.000000 -32.862282
LeftUpLeg -9.871601 41.513307 -1.065753
LeftLeg 1.944319 -0.000000 -0.000000
LeftFoot -17.091895 23.369056 -12.492268
LeftToeBase 17.039540 -0.000000 -0.000000
RightUpLeg -9.862146 0.891728 4.571945
RightLeg 42.042990 -0.000000 -0.000000
RightFoot -8.361986 -9.927162 12.208283
RightToeBase -15.147092 -0.000000 0.000000
1213
root 9.094865 36.175713 -14.549492 198.023855 45.176197 -159.978538
Spine 26.785605 -0.721744 -1.479067
Head 42.244522 6.485047 39.490996
LeftShoulder -9.776897 9.079767 23.762478
LeftArm 22.701441 -49.523415 -73.327625
LeftForeArm -11.690687 0.000000 89.991394
LeftHand -3.902345 0.000000 32.860323
LeftHandThumb1 -26.253704 0.000000 33.147579
RightShoulder -24.406354 -14.608216 0.533070
RightArm 10.050400 -29.587470 73.599960
RightForeArm -7.323659 0.000000 21.813713
RightHand -17.949699 0.000000 3.339192
RightHandThumb1 -24.326973 -0.000000 -32.862282
LeftUpLeg -9.172702 41.468471 -0.977528
LeftLeg 1.828504 -0.000000 -0.000000
LeftFoot -17.061720 23.315282 -12.437614
LeftToeBase 16.982049 -0.000000 -0.000000
RightUpLeg -9.207489 0.352529 4.295659
RightLeg 41.271239 -0.000000 -0.000000
RightFoot -8.082200 -9.397566 11.754185
RightToeBase -15.096420 -0.000000 0.000000
1214
root 9.136688 36.166313 -14.596078 197.368974 45.073606 -160.348738
Spine 26.779651 -0.919740 -1.447133
Head 42.597492 6.543228 39.198381
LeftShoulder -9.741870 9.116608 23.697157
LeftArm 22.832813 -49.162406 -73.742131
LeftForeArm -11.370732 0.000000 89.883663
LeftHand -3.807395 -0.000000 32.610418
LeftHandThumb1 -26.253704 0.000000 33.147579
RightShoulder -24.392749 -14.610402 0.493847
RightArm 10.088734 -29.729848 73.632096
RightForeArm -7.368132 -0.000000 21.968244
RightHand -17.964599 -0.000000 3.060560
RightHandThumb1 -24.326973 -0.000000 -32.862282
LeftUpLeg -8.531680 41.392506 -0.821294
LeftLeg 1.772136 -0.000000 -0.000000
LeftFoot -17.044870 23.336074 -12.376780
LeftToeBase 16.933428 -0.000000 -0.000000
RightUpLeg -8.535563 -0.055741 4.102088
RightLeg 40.465370 -0.000000 -0.000000
RightFoot -7.757803 -8.801089 11.838963
RightToeBase -15.344090 -0.000000 0.000000
1215
root 9.183218 36.163134 -14.629418 196.843381 44.901003 -160.604760
Spine 26.714234 -1.066631 -1.292761
Head 42.895379 6.539691 38.979135
LeftShoulder -9.633535 9.174367 23.611084
LeftArm 22.967269 -48.811864 -74.128313
LeftForeArm -11.010448 -0.000000 89.857358
LeftHand -3.813069 0.000000 32.399536
LeftHandThumb1 -26.253704 0.000000 33.147579
RightShoulder -24.460993 -14.641684 0.521144
RightArm 10.209582 -29.836912 73.583051
RightForeArm -7.211098 -0.000000 21.994483
RightHand -17.790474 -0.000000 2.929760
RightHandThumb1 -24.326973 -0.000000 -32.862282
LeftUpLeg -8.004988 41.291778 -0.595383
LeftLeg 1.791238 -0.000000 -0.000000
LeftFoot -17.049455 23.289331 -12.364931
LeftToeBase 16.883633 -0.000000 -0.000000
RightUpLeg -7.762144 -0.291862 4.045833
RightLeg 39.401370 -0.000000 -0.000000
RightFoot -7.511199 -8.444430 11.736429
RightToeBase -15.336227 -0.000000 0.000000
